# xmcd
#
# Track frame offsets: 
#        150
#        11994
#        21437
#        33706
#        46680
#        59202
#        71136
#        83279
#        95100
#        106652
#        119430
#        133455
#        149234
#        162900
#        177201
#        187312
#        201336
#        211869
#        223443
#        238329
#        250287
#        265117
#
# Disc length: 3709 seconds
#
# Revision: 0
# Processed by: cddbd v1.5.2PL0 Copyright (c) Steve Scherf et al.
# Submitted via: ExactAudioCopy v1.1
#
DISCID=690e7b16
DTITLE=Various Artist - All-Time Country Favourite - Greatest Hits Di
DTITLE=sc 3
DYEAR=2010
DGENRE=Country
TTITLE0=Patsy Cline - Sweet dreams ( of you )
TTITLE1=Elvis Presley - Don't be cruel
TTITLE2=Hank Locklin - It's a little more like heaven
TTITLE3=Webb Pierce - Love, love, love
TTITLE4=Hank Snow - The golden rocket
TTITLE5=Bob Wills and the Texas Playboys - New San Antonio Rose
TTITLE6=Hank Williams - Long gone lonesome blues
TTITLE7=Ernest Tubb - Walking the floor over you
TTITLE8=Eddy Arnold - Bouquet of roses
TTITLE9=Carl Smith - Let old Mother Nature have her way
TTITLE10=Dolly Parton - Coat of many colors
TTITLE11=Kenny Rogers - I don't need you
TTITLE12=Charley Pride - Never been so loved ( in all my life )
TTITLE13=David Houston - Almost persuaded
TTITLE14=Loretta Lynn - You ain't woman enough ( to take my man )
TTITLE15=Johnny Cash - Orange Blossom Special
TTITLE16=Jerry Reed - When you're hot, you're hot
TTITLE17=George Hamilton IV - She's a little bit country
TTITLE18=George Jones - He stopped loving her today
TTITLE19=Tammy Wynette - He loves me all the way
TTITLE20=Alabama - Love in the first degree
TTITLE21=Crystal Gayle - Talking in your sleep
EXTD=
EXTT0=
EXTT1=
EXTT2=
EXTT3=
EXTT4=
EXTT5=
EXTT6=
EXTT7=
EXTT8=
EXTT9=
EXTT10=
EXTT11=
EXTT12=
EXTT13=
EXTT14=
EXTT15=
EXTT16=
EXTT17=
EXTT18=
EXTT19=
EXTT20=
EXTT21=
PLAYORDER=
